<mxfile host="app.diagrams.net" modified="2023-06-12T08:44:24.724Z" agent="Mozilla/5.0 (Windows NT 10.0; Win64; x64) AppleWebKit/537.36 (KHTML, like Gecko) Chrome/114.0.0.0 Safari/537.36 Edg/114.0.1823.37" etag="gh5UgEfqZ6z5GNxIt5BG" version="21.3.8" type="device">
  <diagram id="C5RBs43oDa-KdzZeNtuy" name="Page-1">
    <mxGraphModel dx="1122" dy="786" grid="1" gridSize="10" guides="1" tooltips="1" connect="1" arrows="1" fold="1" page="1" pageScale="1" pageWidth="827" pageHeight="1169" math="0" shadow="0">
      <root>
        <mxCell id="WIyWlLk6GJQsqaUBKTNV-0" />
        <mxCell id="WIyWlLk6GJQsqaUBKTNV-1" parent="WIyWlLk6GJQsqaUBKTNV-0" />
        <mxCell id="k-2-XqStA4sIikNOCKdI-8" value="" style="edgeStyle=orthogonalEdgeStyle;rounded=0;orthogonalLoop=1;jettySize=auto;html=1;" edge="1" parent="WIyWlLk6GJQsqaUBKTNV-1" source="k-2-XqStA4sIikNOCKdI-0" target="k-2-XqStA4sIikNOCKdI-7">
          <mxGeometry relative="1" as="geometry" />
        </mxCell>
        <mxCell id="k-2-XqStA4sIikNOCKdI-0" value="Start" style="ellipse;whiteSpace=wrap;html=1;" vertex="1" parent="WIyWlLk6GJQsqaUBKTNV-1">
          <mxGeometry x="240" y="40" width="120" height="70" as="geometry" />
        </mxCell>
        <mxCell id="k-2-XqStA4sIikNOCKdI-10" value="" style="edgeStyle=orthogonalEdgeStyle;rounded=0;orthogonalLoop=1;jettySize=auto;html=1;" edge="1" parent="WIyWlLk6GJQsqaUBKTNV-1" source="k-2-XqStA4sIikNOCKdI-7" target="k-2-XqStA4sIikNOCKdI-9">
          <mxGeometry relative="1" as="geometry" />
        </mxCell>
        <mxCell id="k-2-XqStA4sIikNOCKdI-15" value="yes" style="edgeLabel;html=1;align=center;verticalAlign=middle;resizable=0;points=[];" vertex="1" connectable="0" parent="k-2-XqStA4sIikNOCKdI-10">
          <mxGeometry x="-0.2949" y="-1" relative="1" as="geometry">
            <mxPoint as="offset" />
          </mxGeometry>
        </mxCell>
        <mxCell id="k-2-XqStA4sIikNOCKdI-17" value="" style="edgeStyle=orthogonalEdgeStyle;rounded=0;orthogonalLoop=1;jettySize=auto;html=1;" edge="1" parent="WIyWlLk6GJQsqaUBKTNV-1" source="k-2-XqStA4sIikNOCKdI-7" target="k-2-XqStA4sIikNOCKdI-16">
          <mxGeometry relative="1" as="geometry" />
        </mxCell>
        <mxCell id="k-2-XqStA4sIikNOCKdI-18" value="no" style="edgeLabel;html=1;align=center;verticalAlign=middle;resizable=0;points=[];" vertex="1" connectable="0" parent="k-2-XqStA4sIikNOCKdI-17">
          <mxGeometry x="-0.7168" relative="1" as="geometry">
            <mxPoint y="13" as="offset" />
          </mxGeometry>
        </mxCell>
        <mxCell id="k-2-XqStA4sIikNOCKdI-7" value="check if dependency&lt;br&gt;is missing" style="rhombus;whiteSpace=wrap;html=1;" vertex="1" parent="WIyWlLk6GJQsqaUBKTNV-1">
          <mxGeometry x="250" y="130" width="100" height="100" as="geometry" />
        </mxCell>
        <mxCell id="k-2-XqStA4sIikNOCKdI-14" value="" style="edgeStyle=orthogonalEdgeStyle;rounded=0;orthogonalLoop=1;jettySize=auto;html=1;" edge="1" parent="WIyWlLk6GJQsqaUBKTNV-1" source="k-2-XqStA4sIikNOCKdI-9" target="k-2-XqStA4sIikNOCKdI-13">
          <mxGeometry relative="1" as="geometry" />
        </mxCell>
        <mxCell id="k-2-XqStA4sIikNOCKdI-9" value="print error message" style="whiteSpace=wrap;html=1;" vertex="1" parent="WIyWlLk6GJQsqaUBKTNV-1">
          <mxGeometry x="420" y="150" width="120" height="60" as="geometry" />
        </mxCell>
        <mxCell id="k-2-XqStA4sIikNOCKdI-13" value="exit" style="ellipse;whiteSpace=wrap;html=1;" vertex="1" parent="WIyWlLk6GJQsqaUBKTNV-1">
          <mxGeometry x="610" y="155" width="80" height="50" as="geometry" />
        </mxCell>
        <mxCell id="k-2-XqStA4sIikNOCKdI-112" style="edgeStyle=orthogonalEdgeStyle;rounded=0;orthogonalLoop=1;jettySize=auto;html=1;" edge="1" parent="WIyWlLk6GJQsqaUBKTNV-1" source="k-2-XqStA4sIikNOCKdI-16" target="k-2-XqStA4sIikNOCKdI-20">
          <mxGeometry relative="1" as="geometry" />
        </mxCell>
        <mxCell id="k-2-XqStA4sIikNOCKdI-16" value="&lt;div&gt;Print instructions for the game&lt;/div&gt;" style="whiteSpace=wrap;html=1;" vertex="1" parent="WIyWlLk6GJQsqaUBKTNV-1">
          <mxGeometry x="240" y="280" width="120" height="60" as="geometry" />
        </mxCell>
        <mxCell id="k-2-XqStA4sIikNOCKdI-23" value="" style="edgeStyle=orthogonalEdgeStyle;rounded=0;orthogonalLoop=1;jettySize=auto;html=1;" edge="1" parent="WIyWlLk6GJQsqaUBKTNV-1" source="k-2-XqStA4sIikNOCKdI-20" target="k-2-XqStA4sIikNOCKdI-22">
          <mxGeometry relative="1" as="geometry" />
        </mxCell>
        <mxCell id="k-2-XqStA4sIikNOCKdI-20" value="&lt;div&gt;Get user name input&lt;/div&gt;" style="whiteSpace=wrap;html=1;" vertex="1" parent="WIyWlLk6GJQsqaUBKTNV-1">
          <mxGeometry x="240" y="380" width="120" height="60" as="geometry" />
        </mxCell>
        <mxCell id="k-2-XqStA4sIikNOCKdI-25" value="" style="edgeStyle=orthogonalEdgeStyle;rounded=0;orthogonalLoop=1;jettySize=auto;html=1;" edge="1" parent="WIyWlLk6GJQsqaUBKTNV-1" source="k-2-XqStA4sIikNOCKdI-22" target="k-2-XqStA4sIikNOCKdI-24">
          <mxGeometry relative="1" as="geometry" />
        </mxCell>
        <mxCell id="k-2-XqStA4sIikNOCKdI-22" value="&lt;div&gt;Display game mode menu&lt;/div&gt;" style="whiteSpace=wrap;html=1;" vertex="1" parent="WIyWlLk6GJQsqaUBKTNV-1">
          <mxGeometry x="480" y="480" width="120" height="60" as="geometry" />
        </mxCell>
        <mxCell id="k-2-XqStA4sIikNOCKdI-27" value="" style="edgeStyle=orthogonalEdgeStyle;rounded=0;orthogonalLoop=1;jettySize=auto;html=1;" edge="1" parent="WIyWlLk6GJQsqaUBKTNV-1" source="k-2-XqStA4sIikNOCKdI-24" target="k-2-XqStA4sIikNOCKdI-26">
          <mxGeometry relative="1" as="geometry" />
        </mxCell>
        <mxCell id="k-2-XqStA4sIikNOCKdI-24" value="&lt;div&gt;Get game mode input&lt;/div&gt;" style="whiteSpace=wrap;html=1;" vertex="1" parent="WIyWlLk6GJQsqaUBKTNV-1">
          <mxGeometry x="480" y="574.5" width="120" height="60" as="geometry" />
        </mxCell>
        <mxCell id="k-2-XqStA4sIikNOCKdI-29" value="" style="edgeStyle=orthogonalEdgeStyle;rounded=0;orthogonalLoop=1;jettySize=auto;html=1;" edge="1" parent="WIyWlLk6GJQsqaUBKTNV-1" source="k-2-XqStA4sIikNOCKdI-26" target="k-2-XqStA4sIikNOCKdI-28">
          <mxGeometry relative="1" as="geometry" />
        </mxCell>
        <mxCell id="k-2-XqStA4sIikNOCKdI-26" value="&lt;div&gt;Display difficulty menu&lt;/div&gt;&lt;div&gt;&lt;br&gt;&lt;/div&gt;" style="whiteSpace=wrap;html=1;" vertex="1" parent="WIyWlLk6GJQsqaUBKTNV-1">
          <mxGeometry x="480" y="660" width="120" height="60" as="geometry" />
        </mxCell>
        <mxCell id="k-2-XqStA4sIikNOCKdI-31" value="" style="edgeStyle=orthogonalEdgeStyle;rounded=0;orthogonalLoop=1;jettySize=auto;html=1;" edge="1" parent="WIyWlLk6GJQsqaUBKTNV-1" source="k-2-XqStA4sIikNOCKdI-28" target="k-2-XqStA4sIikNOCKdI-30">
          <mxGeometry relative="1" as="geometry" />
        </mxCell>
        <mxCell id="k-2-XqStA4sIikNOCKdI-28" value="&lt;div&gt;Get difficulty input&lt;/div&gt;&lt;div&gt;&lt;br&gt;&lt;/div&gt;" style="whiteSpace=wrap;html=1;" vertex="1" parent="WIyWlLk6GJQsqaUBKTNV-1">
          <mxGeometry x="480" y="750" width="120" height="60" as="geometry" />
        </mxCell>
        <mxCell id="k-2-XqStA4sIikNOCKdI-33" value="" style="edgeStyle=orthogonalEdgeStyle;rounded=0;orthogonalLoop=1;jettySize=auto;html=1;" edge="1" parent="WIyWlLk6GJQsqaUBKTNV-1" source="k-2-XqStA4sIikNOCKdI-30" target="k-2-XqStA4sIikNOCKdI-32">
          <mxGeometry relative="1" as="geometry" />
        </mxCell>
        <mxCell id="k-2-XqStA4sIikNOCKdI-30" value="&lt;div&gt;Get difficulty input&lt;/div&gt;&lt;div&gt;&lt;br&gt;&lt;/div&gt;" style="whiteSpace=wrap;html=1;" vertex="1" parent="WIyWlLk6GJQsqaUBKTNV-1">
          <mxGeometry x="480" y="840" width="120" height="60" as="geometry" />
        </mxCell>
        <mxCell id="k-2-XqStA4sIikNOCKdI-35" value="" style="edgeStyle=orthogonalEdgeStyle;rounded=0;orthogonalLoop=1;jettySize=auto;html=1;" edge="1" parent="WIyWlLk6GJQsqaUBKTNV-1" source="k-2-XqStA4sIikNOCKdI-32" target="k-2-XqStA4sIikNOCKdI-34">
          <mxGeometry relative="1" as="geometry" />
        </mxCell>
        <mxCell id="k-2-XqStA4sIikNOCKdI-32" value="Get difficulty input" style="whiteSpace=wrap;html=1;" vertex="1" parent="WIyWlLk6GJQsqaUBKTNV-1">
          <mxGeometry x="480" y="940" width="120" height="60" as="geometry" />
        </mxCell>
        <mxCell id="k-2-XqStA4sIikNOCKdI-37" value="" style="edgeStyle=orthogonalEdgeStyle;rounded=0;orthogonalLoop=1;jettySize=auto;html=1;entryX=0.5;entryY=0;entryDx=0;entryDy=0;" edge="1" parent="WIyWlLk6GJQsqaUBKTNV-1" source="k-2-XqStA4sIikNOCKdI-34" target="k-2-XqStA4sIikNOCKdI-113">
          <mxGeometry relative="1" as="geometry">
            <mxPoint x="540.047619047619" y="1120" as="targetPoint" />
          </mxGeometry>
        </mxCell>
        <mxCell id="k-2-XqStA4sIikNOCKdI-34" value="Configure game based on difficulty and game mode" style="whiteSpace=wrap;html=1;" vertex="1" parent="WIyWlLk6GJQsqaUBKTNV-1">
          <mxGeometry x="480" y="1030" width="120" height="60" as="geometry" />
        </mxCell>
        <mxCell id="k-2-XqStA4sIikNOCKdI-39" value="" style="edgeStyle=orthogonalEdgeStyle;rounded=0;orthogonalLoop=1;jettySize=auto;html=1;exitX=1;exitY=0.5;exitDx=0;exitDy=0;" edge="1" parent="WIyWlLk6GJQsqaUBKTNV-1" source="k-2-XqStA4sIikNOCKdI-113" target="k-2-XqStA4sIikNOCKdI-38">
          <mxGeometry relative="1" as="geometry">
            <mxPoint x="600" y="1150" as="sourcePoint" />
          </mxGeometry>
        </mxCell>
        <mxCell id="k-2-XqStA4sIikNOCKdI-115" value="no" style="edgeLabel;html=1;align=center;verticalAlign=middle;resizable=0;points=[];" vertex="1" connectable="0" parent="k-2-XqStA4sIikNOCKdI-39">
          <mxGeometry x="-0.2975" relative="1" as="geometry">
            <mxPoint as="offset" />
          </mxGeometry>
        </mxCell>
        <mxCell id="k-2-XqStA4sIikNOCKdI-80" value="" style="edgeStyle=orthogonalEdgeStyle;rounded=0;orthogonalLoop=1;jettySize=auto;html=1;exitX=0;exitY=0.5;exitDx=0;exitDy=0;" edge="1" parent="WIyWlLk6GJQsqaUBKTNV-1" source="k-2-XqStA4sIikNOCKdI-113" target="k-2-XqStA4sIikNOCKdI-79">
          <mxGeometry relative="1" as="geometry">
            <mxPoint x="510" y="1180" as="sourcePoint" />
          </mxGeometry>
        </mxCell>
        <mxCell id="k-2-XqStA4sIikNOCKdI-114" value="yes" style="edgeLabel;html=1;align=center;verticalAlign=middle;resizable=0;points=[];" vertex="1" connectable="0" parent="k-2-XqStA4sIikNOCKdI-80">
          <mxGeometry x="-0.6932" y="-1" relative="1" as="geometry">
            <mxPoint as="offset" />
          </mxGeometry>
        </mxCell>
        <mxCell id="k-2-XqStA4sIikNOCKdI-41" value="" style="edgeStyle=orthogonalEdgeStyle;rounded=0;orthogonalLoop=1;jettySize=auto;html=1;" edge="1" parent="WIyWlLk6GJQsqaUBKTNV-1" source="k-2-XqStA4sIikNOCKdI-38" target="k-2-XqStA4sIikNOCKdI-40">
          <mxGeometry relative="1" as="geometry" />
        </mxCell>
        <mxCell id="k-2-XqStA4sIikNOCKdI-38" value="Generate a new question" style="whiteSpace=wrap;html=1;" vertex="1" parent="WIyWlLk6GJQsqaUBKTNV-1">
          <mxGeometry x="645" y="1135" width="120" height="60" as="geometry" />
        </mxCell>
        <mxCell id="k-2-XqStA4sIikNOCKdI-43" value="" style="edgeStyle=orthogonalEdgeStyle;rounded=0;orthogonalLoop=1;jettySize=auto;html=1;" edge="1" parent="WIyWlLk6GJQsqaUBKTNV-1" source="k-2-XqStA4sIikNOCKdI-40" target="k-2-XqStA4sIikNOCKdI-42">
          <mxGeometry relative="1" as="geometry" />
        </mxCell>
        <mxCell id="k-2-XqStA4sIikNOCKdI-40" value="Get question and answer" style="whiteSpace=wrap;html=1;" vertex="1" parent="WIyWlLk6GJQsqaUBKTNV-1">
          <mxGeometry x="815" y="1135" width="120" height="60" as="geometry" />
        </mxCell>
        <mxCell id="k-2-XqStA4sIikNOCKdI-45" value="" style="edgeStyle=orthogonalEdgeStyle;rounded=0;orthogonalLoop=1;jettySize=auto;html=1;" edge="1" parent="WIyWlLk6GJQsqaUBKTNV-1" source="k-2-XqStA4sIikNOCKdI-42" target="k-2-XqStA4sIikNOCKdI-44">
          <mxGeometry relative="1" as="geometry" />
        </mxCell>
        <mxCell id="k-2-XqStA4sIikNOCKdI-46" value="yes" style="edgeLabel;html=1;align=center;verticalAlign=middle;resizable=0;points=[];" vertex="1" connectable="0" parent="k-2-XqStA4sIikNOCKdI-45">
          <mxGeometry x="-0.1773" y="1" relative="1" as="geometry">
            <mxPoint as="offset" />
          </mxGeometry>
        </mxCell>
        <mxCell id="k-2-XqStA4sIikNOCKdI-48" value="" style="edgeStyle=orthogonalEdgeStyle;rounded=0;orthogonalLoop=1;jettySize=auto;html=1;" edge="1" parent="WIyWlLk6GJQsqaUBKTNV-1" source="k-2-XqStA4sIikNOCKdI-42" target="k-2-XqStA4sIikNOCKdI-47">
          <mxGeometry relative="1" as="geometry" />
        </mxCell>
        <mxCell id="k-2-XqStA4sIikNOCKdI-49" value="no" style="edgeLabel;html=1;align=center;verticalAlign=middle;resizable=0;points=[];" vertex="1" connectable="0" parent="k-2-XqStA4sIikNOCKdI-48">
          <mxGeometry x="-0.2258" y="-1" relative="1" as="geometry">
            <mxPoint as="offset" />
          </mxGeometry>
        </mxCell>
        <mxCell id="k-2-XqStA4sIikNOCKdI-42" value="Check if game mode is multiple choice" style="rhombus;whiteSpace=wrap;html=1;" vertex="1" parent="WIyWlLk6GJQsqaUBKTNV-1">
          <mxGeometry x="825" y="1210" width="110" height="110" as="geometry" />
        </mxCell>
        <mxCell id="k-2-XqStA4sIikNOCKdI-51" value="" style="edgeStyle=orthogonalEdgeStyle;rounded=0;orthogonalLoop=1;jettySize=auto;html=1;" edge="1" parent="WIyWlLk6GJQsqaUBKTNV-1" source="k-2-XqStA4sIikNOCKdI-44" target="k-2-XqStA4sIikNOCKdI-50">
          <mxGeometry relative="1" as="geometry" />
        </mxCell>
        <mxCell id="k-2-XqStA4sIikNOCKdI-44" value="Shuffle possible answers" style="whiteSpace=wrap;html=1;" vertex="1" parent="WIyWlLk6GJQsqaUBKTNV-1">
          <mxGeometry x="820" y="1380" width="120" height="60" as="geometry" />
        </mxCell>
        <mxCell id="k-2-XqStA4sIikNOCKdI-66" value="" style="edgeStyle=orthogonalEdgeStyle;rounded=0;orthogonalLoop=1;jettySize=auto;html=1;" edge="1" parent="WIyWlLk6GJQsqaUBKTNV-1" source="k-2-XqStA4sIikNOCKdI-47" target="k-2-XqStA4sIikNOCKdI-65">
          <mxGeometry relative="1" as="geometry" />
        </mxCell>
        <mxCell id="k-2-XqStA4sIikNOCKdI-47" value="Display true/false question" style="whiteSpace=wrap;html=1;" vertex="1" parent="WIyWlLk6GJQsqaUBKTNV-1">
          <mxGeometry x="650" y="1235" width="120" height="60" as="geometry" />
        </mxCell>
        <mxCell id="k-2-XqStA4sIikNOCKdI-53" value="" style="edgeStyle=orthogonalEdgeStyle;rounded=0;orthogonalLoop=1;jettySize=auto;html=1;" edge="1" parent="WIyWlLk6GJQsqaUBKTNV-1" source="k-2-XqStA4sIikNOCKdI-50" target="k-2-XqStA4sIikNOCKdI-52">
          <mxGeometry relative="1" as="geometry" />
        </mxCell>
        <mxCell id="k-2-XqStA4sIikNOCKdI-50" value="Display multiple-choice question and options" style="whiteSpace=wrap;html=1;" vertex="1" parent="WIyWlLk6GJQsqaUBKTNV-1">
          <mxGeometry x="820" y="1480" width="120" height="60" as="geometry" />
        </mxCell>
        <mxCell id="k-2-XqStA4sIikNOCKdI-55" value="" style="edgeStyle=orthogonalEdgeStyle;rounded=0;orthogonalLoop=1;jettySize=auto;html=1;" edge="1" parent="WIyWlLk6GJQsqaUBKTNV-1" source="k-2-XqStA4sIikNOCKdI-52" target="k-2-XqStA4sIikNOCKdI-54">
          <mxGeometry relative="1" as="geometry" />
        </mxCell>
        <mxCell id="k-2-XqStA4sIikNOCKdI-52" value="Get user answer" style="whiteSpace=wrap;html=1;" vertex="1" parent="WIyWlLk6GJQsqaUBKTNV-1">
          <mxGeometry x="820" y="1580" width="120" height="60" as="geometry" />
        </mxCell>
        <mxCell id="k-2-XqStA4sIikNOCKdI-57" value="" style="edgeStyle=orthogonalEdgeStyle;rounded=0;orthogonalLoop=1;jettySize=auto;html=1;" edge="1" parent="WIyWlLk6GJQsqaUBKTNV-1" source="k-2-XqStA4sIikNOCKdI-54" target="k-2-XqStA4sIikNOCKdI-56">
          <mxGeometry relative="1" as="geometry" />
        </mxCell>
        <mxCell id="k-2-XqStA4sIikNOCKdI-54" value="Update correct and incorrect counts" style="whiteSpace=wrap;html=1;" vertex="1" parent="WIyWlLk6GJQsqaUBKTNV-1">
          <mxGeometry x="820" y="1680" width="120" height="60" as="geometry" />
        </mxCell>
        <mxCell id="k-2-XqStA4sIikNOCKdI-71" value="" style="edgeStyle=orthogonalEdgeStyle;rounded=0;orthogonalLoop=1;jettySize=auto;html=1;entryX=0.5;entryY=1;entryDx=0;entryDy=0;" edge="1" parent="WIyWlLk6GJQsqaUBKTNV-1" source="k-2-XqStA4sIikNOCKdI-56" target="k-2-XqStA4sIikNOCKdI-73">
          <mxGeometry relative="1" as="geometry">
            <mxPoint x="590" y="1640" as="targetPoint" />
          </mxGeometry>
        </mxCell>
        <mxCell id="k-2-XqStA4sIikNOCKdI-72" value="no" style="edgeLabel;html=1;align=center;verticalAlign=middle;resizable=0;points=[];" vertex="1" connectable="0" parent="k-2-XqStA4sIikNOCKdI-71">
          <mxGeometry x="-0.7105" y="-1" relative="1" as="geometry">
            <mxPoint as="offset" />
          </mxGeometry>
        </mxCell>
        <mxCell id="k-2-XqStA4sIikNOCKdI-77" value="" style="edgeStyle=orthogonalEdgeStyle;rounded=0;orthogonalLoop=1;jettySize=auto;html=1;entryX=1;entryY=0.5;entryDx=0;entryDy=0;" edge="1" parent="WIyWlLk6GJQsqaUBKTNV-1" source="k-2-XqStA4sIikNOCKdI-56" target="k-2-XqStA4sIikNOCKdI-79">
          <mxGeometry relative="1" as="geometry">
            <mxPoint x="710" y="1790" as="targetPoint" />
            <Array as="points">
              <mxPoint x="710" y="1710" />
              <mxPoint x="480" y="1710" />
              <mxPoint x="480" y="1270" />
            </Array>
          </mxGeometry>
        </mxCell>
        <mxCell id="k-2-XqStA4sIikNOCKdI-78" value="yes" style="edgeLabel;html=1;align=center;verticalAlign=middle;resizable=0;points=[];" vertex="1" connectable="0" parent="k-2-XqStA4sIikNOCKdI-77">
          <mxGeometry x="-0.3169" y="-1" relative="1" as="geometry">
            <mxPoint as="offset" />
          </mxGeometry>
        </mxCell>
        <mxCell id="k-2-XqStA4sIikNOCKdI-56" value="Check if user wants to quit" style="rhombus;whiteSpace=wrap;html=1;" vertex="1" parent="WIyWlLk6GJQsqaUBKTNV-1">
          <mxGeometry x="660" y="1590" width="100" height="100" as="geometry" />
        </mxCell>
        <mxCell id="k-2-XqStA4sIikNOCKdI-68" value="" style="edgeStyle=orthogonalEdgeStyle;rounded=0;orthogonalLoop=1;jettySize=auto;html=1;" edge="1" parent="WIyWlLk6GJQsqaUBKTNV-1" source="k-2-XqStA4sIikNOCKdI-65" target="k-2-XqStA4sIikNOCKdI-67">
          <mxGeometry relative="1" as="geometry" />
        </mxCell>
        <mxCell id="k-2-XqStA4sIikNOCKdI-65" value="Get user answer" style="whiteSpace=wrap;html=1;" vertex="1" parent="WIyWlLk6GJQsqaUBKTNV-1">
          <mxGeometry x="650" y="1340" width="120" height="60" as="geometry" />
        </mxCell>
        <mxCell id="k-2-XqStA4sIikNOCKdI-69" value="" style="edgeStyle=orthogonalEdgeStyle;rounded=0;orthogonalLoop=1;jettySize=auto;html=1;" edge="1" parent="WIyWlLk6GJQsqaUBKTNV-1" source="k-2-XqStA4sIikNOCKdI-67" target="k-2-XqStA4sIikNOCKdI-56">
          <mxGeometry relative="1" as="geometry" />
        </mxCell>
        <mxCell id="k-2-XqStA4sIikNOCKdI-67" value="Update correct and incorrect counts" style="whiteSpace=wrap;html=1;" vertex="1" parent="WIyWlLk6GJQsqaUBKTNV-1">
          <mxGeometry x="650" y="1460" width="120" height="60" as="geometry" />
        </mxCell>
        <mxCell id="k-2-XqStA4sIikNOCKdI-75" value="" style="edgeStyle=orthogonalEdgeStyle;rounded=0;orthogonalLoop=1;jettySize=auto;html=1;entryX=0.5;entryY=1;entryDx=0;entryDy=0;" edge="1" parent="WIyWlLk6GJQsqaUBKTNV-1" source="k-2-XqStA4sIikNOCKdI-73" target="k-2-XqStA4sIikNOCKdI-113">
          <mxGeometry relative="1" as="geometry">
            <mxPoint x="570" y="1180" as="targetPoint" />
          </mxGeometry>
        </mxCell>
        <mxCell id="k-2-XqStA4sIikNOCKdI-73" value="Increment game_iterations" style="rounded=0;whiteSpace=wrap;html=1;" vertex="1" parent="WIyWlLk6GJQsqaUBKTNV-1">
          <mxGeometry x="510" y="1330" width="120" height="60" as="geometry" />
        </mxCell>
        <mxCell id="k-2-XqStA4sIikNOCKdI-82" value="" style="edgeStyle=orthogonalEdgeStyle;rounded=0;orthogonalLoop=1;jettySize=auto;html=1;" edge="1" parent="WIyWlLk6GJQsqaUBKTNV-1" source="k-2-XqStA4sIikNOCKdI-79" target="k-2-XqStA4sIikNOCKdI-81">
          <mxGeometry relative="1" as="geometry" />
        </mxCell>
        <mxCell id="k-2-XqStA4sIikNOCKdI-79" value="Calculate max_score and score based on game results" style="whiteSpace=wrap;html=1;" vertex="1" parent="WIyWlLk6GJQsqaUBKTNV-1">
          <mxGeometry x="300" y="1240" width="120" height="60" as="geometry" />
        </mxCell>
        <mxCell id="k-2-XqStA4sIikNOCKdI-84" value="" style="edgeStyle=orthogonalEdgeStyle;rounded=0;orthogonalLoop=1;jettySize=auto;html=1;" edge="1" parent="WIyWlLk6GJQsqaUBKTNV-1" source="k-2-XqStA4sIikNOCKdI-81" target="k-2-XqStA4sIikNOCKdI-83">
          <mxGeometry relative="1" as="geometry" />
        </mxCell>
        <mxCell id="k-2-XqStA4sIikNOCKdI-81" value="Create statObject with user&#39;s data" style="whiteSpace=wrap;html=1;" vertex="1" parent="WIyWlLk6GJQsqaUBKTNV-1">
          <mxGeometry x="300" y="1340" width="120" height="60" as="geometry" />
        </mxCell>
        <mxCell id="k-2-XqStA4sIikNOCKdI-86" value="" style="edgeStyle=orthogonalEdgeStyle;rounded=0;orthogonalLoop=1;jettySize=auto;html=1;" edge="1" parent="WIyWlLk6GJQsqaUBKTNV-1" source="k-2-XqStA4sIikNOCKdI-83" target="k-2-XqStA4sIikNOCKdI-85">
          <mxGeometry relative="1" as="geometry" />
        </mxCell>
        <mxCell id="k-2-XqStA4sIikNOCKdI-83" value="Save statObject to scores" style="whiteSpace=wrap;html=1;" vertex="1" parent="WIyWlLk6GJQsqaUBKTNV-1">
          <mxGeometry x="300" y="1430" width="120" height="60" as="geometry" />
        </mxCell>
        <mxCell id="k-2-XqStA4sIikNOCKdI-88" value="" style="edgeStyle=orthogonalEdgeStyle;rounded=0;orthogonalLoop=1;jettySize=auto;html=1;" edge="1" parent="WIyWlLk6GJQsqaUBKTNV-1" source="k-2-XqStA4sIikNOCKdI-85" target="k-2-XqStA4sIikNOCKdI-87">
          <mxGeometry relative="1" as="geometry" />
        </mxCell>
        <mxCell id="k-2-XqStA4sIikNOCKdI-85" value="Display game statistics and score" style="whiteSpace=wrap;html=1;" vertex="1" parent="WIyWlLk6GJQsqaUBKTNV-1">
          <mxGeometry x="300" y="1520" width="120" height="60" as="geometry" />
        </mxCell>
        <mxCell id="k-2-XqStA4sIikNOCKdI-90" value="" style="edgeStyle=orthogonalEdgeStyle;rounded=0;orthogonalLoop=1;jettySize=auto;html=1;" edge="1" parent="WIyWlLk6GJQsqaUBKTNV-1" source="k-2-XqStA4sIikNOCKdI-87" target="k-2-XqStA4sIikNOCKdI-89">
          <mxGeometry relative="1" as="geometry" />
        </mxCell>
        <mxCell id="k-2-XqStA4sIikNOCKdI-87" value="Display prompt to play again or quit" style="whiteSpace=wrap;html=1;" vertex="1" parent="WIyWlLk6GJQsqaUBKTNV-1">
          <mxGeometry x="300" y="1624" width="120" height="60" as="geometry" />
        </mxCell>
        <mxCell id="k-2-XqStA4sIikNOCKdI-92" value="" style="edgeStyle=orthogonalEdgeStyle;rounded=0;orthogonalLoop=1;jettySize=auto;html=1;" edge="1" parent="WIyWlLk6GJQsqaUBKTNV-1" source="k-2-XqStA4sIikNOCKdI-89" target="k-2-XqStA4sIikNOCKdI-91">
          <mxGeometry relative="1" as="geometry" />
        </mxCell>
        <mxCell id="k-2-XqStA4sIikNOCKdI-89" value="Display prompt to play again or quit" style="whiteSpace=wrap;html=1;" vertex="1" parent="WIyWlLk6GJQsqaUBKTNV-1">
          <mxGeometry x="300" y="1730" width="120" height="60" as="geometry" />
        </mxCell>
        <mxCell id="k-2-XqStA4sIikNOCKdI-105" value="" style="edgeStyle=orthogonalEdgeStyle;rounded=0;orthogonalLoop=1;jettySize=auto;html=1;" edge="1" parent="WIyWlLk6GJQsqaUBKTNV-1" source="k-2-XqStA4sIikNOCKdI-91" target="k-2-XqStA4sIikNOCKdI-99">
          <mxGeometry relative="1" as="geometry">
            <mxPoint x="225" y="1190" as="targetPoint" />
          </mxGeometry>
        </mxCell>
        <mxCell id="k-2-XqStA4sIikNOCKdI-106" value="no" style="edgeLabel;html=1;align=center;verticalAlign=middle;resizable=0;points=[];" vertex="1" connectable="0" parent="k-2-XqStA4sIikNOCKdI-105">
          <mxGeometry x="-0.688" y="1" relative="1" as="geometry">
            <mxPoint as="offset" />
          </mxGeometry>
        </mxCell>
        <mxCell id="k-2-XqStA4sIikNOCKdI-111" value="Yes" style="edgeStyle=orthogonalEdgeStyle;rounded=0;orthogonalLoop=1;jettySize=auto;html=1;" edge="1" parent="WIyWlLk6GJQsqaUBKTNV-1" source="k-2-XqStA4sIikNOCKdI-91" target="k-2-XqStA4sIikNOCKdI-22">
          <mxGeometry x="-0.9786" relative="1" as="geometry">
            <mxPoint x="430" y="470" as="targetPoint" />
            <Array as="points">
              <mxPoint x="230" y="520" />
            </Array>
            <mxPoint as="offset" />
          </mxGeometry>
        </mxCell>
        <mxCell id="k-2-XqStA4sIikNOCKdI-91" value="Check if play_again is true" style="rhombus;whiteSpace=wrap;html=1;" vertex="1" parent="WIyWlLk6GJQsqaUBKTNV-1">
          <mxGeometry x="180" y="1710" width="90" height="100" as="geometry" />
        </mxCell>
        <mxCell id="k-2-XqStA4sIikNOCKdI-99" value="End" style="ellipse;whiteSpace=wrap;html=1;" vertex="1" parent="WIyWlLk6GJQsqaUBKTNV-1">
          <mxGeometry x="185" y="1900" width="80" height="60" as="geometry" />
        </mxCell>
        <mxCell id="k-2-XqStA4sIikNOCKdI-113" value="check if game_iterations &amp;lt; limit&amp;nbsp;" style="rhombus;whiteSpace=wrap;html=1;" vertex="1" parent="WIyWlLk6GJQsqaUBKTNV-1">
          <mxGeometry x="485" y="1110" width="110" height="110" as="geometry" />
        </mxCell>
      </root>
    </mxGraphModel>
  </diagram>
</mxfile>
